<svg version="1.2" xmlns="http://www.w3.org/2000/svg" viewBox="0 0 1080 560" width="1080" height="560">
	<title>New Project</title>
	<style>
		.s0 { fill: #5271ff } 
	</style>
	<path id="csjobs" class="s0" aria-label="csjobs"  d="m102 194.5q39.4 0 63.6 16.9 24.5 16.7 24.5 51.2h-58.4q0-27.2-29.7-27.2-29.7 0-29.7 34.2v17.2q0 34 30.9 34 30.9 0 30.9-27.9h56q0 34.8-24.5 51.8-24.2 16.9-63.6 16.9-42.1 0-66-21.2-24-21.2-24-62.3 0-41.2 24-62.4 23.9-21.2 66-21.2zm195.3 0q32.1 0 54.2 12.7 22.4 12.4 22.4 38.8h-56q0-8.8-7.9-12.5-5.4-3-13.6-3-21.8 0-21.8 10.3 0 5.8 7.6 8.2 7.5 2.4 24.8 5.1 21.2 3.1 35.4 7.3 14.3 3.9 24.9 14.5 10.6 10.3 10.6 29.1 0 30.6-23 43.6-22.8 13-59.7 13-21.2 0-40-5.7-18.8-6.1-30.6-18.5-11.8-12.4-11.8-31.5h56v1.2q0.4 10.3 8.5 14.6 8.5 3.9 17.9 3.9 25.1 0 25.1-11.8 0-6.1-7.8-8.8-7.9-2.7-25.8-5.7-21.5-3.7-35.4-7.9-13.6-4.3-23.9-14.3-10.3-10.3-10.3-28.4 0-29.4 22.1-41.8 22.4-12.4 58.1-12.4zm171.4-15.2h-60.2v-40.9h60.2zm0 187.5q0 29.1-13.3 42.1-13 12.7-42.1 12.7-7.9 0-19.4-1.5-11.5-1.5-18.2-3.9v-36.1h15.8q17 0 17-19.4v-162.6h60.2zm121.1-172.3q42.1 0 66.1 21.5 24.2 21.2 24.2 62.1 0 40.9-24.2 62.4-24 21.2-66.1 21.2-42 0-66-21.2-23.9-21.2-23.9-62.4 0-41.2 23.9-62.4 24-21.2 66-21.2zm0 40.9q-29.6 0-29.6 34.2v17.3q0 33.9 29.6 33.9 30 0 30-33.9v-17.3q0-34.2-30-34.2zm179.9-22.4q17.3-18.5 44.8-18.5 32.5 0 50 21.2 17.6 20.9 17.6 62.1 0 41.5-17.6 62.7-17.5 21.2-50 21.2-33.3 0-50.8-26.4l-5.2 22.7h-49v-219.5h60.2zm26.1 26q-13.4 0-20 9.7-6.7 9.4-6.7 24.6v9.9q0 15.2 6.7 24.6 6.6 9.4 20 9.4 26 0 26-30.9v-16.1q0-31.2-26-31.2zm191.4-44.5q32.1 0 54.2 12.7 22.4 12.5 22.4 38.8h-56q0-8.8-7.9-12.4-5.5-3-13.6-3-21.8 0-21.8 10.2 0 5.8 7.5 8.2 7.6 2.4 24.9 5.2 21.2 3 35.4 7.2 14.2 4 24.8 14.6 10.6 10.3 10.6 29 0 30.6-23 43.7-22.7 13-59.7 13-21.2 0-39.9-5.8-18.8-6-30.6-18.4-11.8-12.5-11.8-31.5h56v1.2q0.3 10.3 8.5 14.5 8.5 3.9 17.8 3.9 25.2 0 25.2-11.8 0-6-7.9-8.8-7.9-2.7-25.7-5.7-21.5-3.6-35.5-7.9-13.6-4.2-23.9-14.2-10.3-10.3-10.3-28.5 0-29.4 22.1-41.8 22.4-12.4 58.2-12.4z"/>
</svg>